HIERARCHY
ROOT Hips
{
	OFFSET -0.001795 -0.223333 0.028219
	CHANNELS 6 Xposition Yposition Zposition Zrotation Yrotation Xrotation 
	JOINT LeftUpLeg
	{
		OFFSET 0.069520 -0.091406 -0.006815
		CHANNELS 3 Zrotation Yrotation Xrotation
		JOINT LeftLeg
		{
			OFFSET 0.034277 -0.375199 -0.004496
			CHANNELS 3 Zrotation Yrotation Xrotation
			JOINT LeftFoot
			{
				OFFSET -0.013596 -0.397961 -0.043693
				CHANNELS 3 Zrotation Yrotation Xrotation
				JOINT LeftToe
				{
					OFFSET 0.026358 -0.055791 0.119288
					CHANNELS 3 Zrotation Yrotation Xrotation
					End Site
					{
						OFFSET 0.000000 0.000000 0.000000
					}
				}
			}
		}
	}
	JOINT RightUpLeg
	{
		OFFSET -0.067670 -0.090522 -0.004320
		CHANNELS 3 Zrotation Yrotation Xrotation
		JOINT RightLeg
		{
			OFFSET -0.038290 -0.382569 -0.008850
			CHANNELS 3 Zrotation Yrotation Xrotation
			JOINT RightFoot
			{
				OFFSET 0.015774 -0.398415 -0.042312
				CHANNELS 3 Zrotation Yrotation Xrotation
				JOINT RightToe
				{
					OFFSET -0.025372 -0.048144 0.123348
					CHANNELS 3 Zrotation Yrotation Xrotation
					End Site
					{
						OFFSET 0.000000 0.000000 0.000000
					}
				}
			}
		}
	}
	JOINT Spine
	{
		OFFSET -0.002533 0.108963 -0.026696
		CHANNELS 3 Zrotation Yrotation Xrotation
		JOINT Spine1
		{
			OFFSET 0.005487 0.135180 0.001092
			CHANNELS 3 Zrotation Yrotation Xrotation
			JOINT Spine2
			{
				OFFSET 0.001457 0.052922 0.025425
				CHANNELS 3 Zrotation Yrotation Xrotation
				JOINT Neck
				{
					OFFSET -0.002778 0.213870 -0.042857
					CHANNELS 3 Zrotation Yrotation Xrotation
					JOINT Head
					{
						OFFSET 0.005152 0.064970 0.051349
						CHANNELS 3 Zrotation Yrotation Xrotation
						End Site
						{
							OFFSET 0.000000 0.000000 0.000000
						}
					}
				}
				JOINT LeftShoulder
				{
					OFFSET 0.078845 0.121749 -0.034090
					CHANNELS 3 Zrotation Yrotation Xrotation
					JOINT LeftArm
					{
						OFFSET 0.090977 0.030469 -0.008868
						CHANNELS 3 Zrotation Yrotation Xrotation
						JOINT LeftForeArm
						{
							OFFSET 0.259612 -0.012772 -0.027456
							CHANNELS 3 Zrotation Yrotation Xrotation
							JOINT LeftHand
							{
								OFFSET 0.249234 0.008986 -0.001171
								CHANNELS 3 Zrotation Yrotation Xrotation
								End Site
								{
									OFFSET 0.000000 0.000000 0.000000
								}
							}
						}
					}
				}
				JOINT RightShoulder
				{
					OFFSET -0.081759 0.118833 -0.038615
					CHANNELS 3 Zrotation Yrotation Xrotation
					JOINT RightArm
					{
						OFFSET -0.096012 0.032551 -0.009143
						CHANNELS 3 Zrotation Yrotation Xrotation
						JOINT RightForeArm
						{
							OFFSET -0.253742 -0.013329 -0.021401
							CHANNELS 3 Zrotation Yrotation Xrotation
							JOINT RightHand
							{
								OFFSET -0.255298 0.007772 -0.005559
								CHANNELS 3 Zrotation Yrotation Xrotation
								End Site
								{
									OFFSET 0.000000 0.000000 0.000000
								}
							}
						}
					}
				}
			}
		}
	}
}
MOTION
Frames: 18
Frame Time: 0.050000
0.000000 0.952917 0.000000 -1.229929 -0.542446 1.337131 2.842702 0.002119 0.649483 1.636834 -0.057068 -2.543509 -2.509667 -0.293095 10.286943 0.000000 0.000000 0.000000 -0.853327 0.028464 -0.055715 -1.987549 0.128778 -1.391040 -3.127901 -11.074517 12.607431 0.000000 0.000000 0.000000 1.664498 -0.057305 0.644932 -1.104531 0.537383 -0.671730 -0.040263 1.335566 2.199091 1.557206 -0.317755 -9.001534 0.000000 0.000000 0.000000 -21.702342 -1.818203 -1.495257 -48.997477 -4.783702 -3.625456 -13.240919 -20.767514 3.123943 0.000000 0.000000 0.000000 20.423779 0.666193 -1.349532 53.747369 4.797870 -2.928114 8.077011 18.869482 1.815743 0.000000 0.000000 0.000000 
0.000202 0.951706 0.001405 -1.345245 -1.241742 1.599127 2.558699 0.040659 1.091794 2.233249 -0.063010 -3.449505 -2.111195 0.231189 10.081788 0.000000 0.000000 0.000000 -1.299237 0.059838 -0.247466 -1.103911 0.037363 -1.549271 -2.832193 -10.518932 12.166405 0.000000 0.000000 0.000000 1.659549 -0.034302 0.203589 -1.856956 0.887909 -0.162385 0.712598 1.236333 1.411371 0.793076 0.197449 -9.421583 0.000000 0.000000 0.000000 -22.238917 -1.176978 -1.757079 -48.802418 -4.709295 -3.610503 -13.801762 -20.796360 3.251749 0.000000 0.000000 0.000000 19.715056 0.679175 -1.480479 54.570104 4.061703 -3.175339 9.038341 19.930026 2.051288 0.000000 0.000000 0.000000 
0.000300 0.951131 0.002384 -1.195243 -0.832959 1.650718 2.249803 0.037808 0.986094 2.537904 -0.090245 -3.370499 -2.253931 -0.050140 9.889010 0.000000 0.000000 0.000000 -1.415666 0.061161 -0.234545 -1.142731 0.046339 -1.457013 -3.071459 -10.876852 11.990249 0.000000 0.000000 0.000000 1.440351 -0.045713 0.475073 -1.290118 0.637238 -1.914763 0.103655 0.886734 2.250250 0.390334 0.439026 -9.087045 0.000000 0.000000 0.000000 -21.912268 -1.180944 -1.687479 -48.983558 -4.329678 -3.853842 -13.970993 -20.115368 3.179293 0.000000 0.000000 0.000000 21.095885 1.321057 -1.222422 53.385918 3.618124 -3.388456 8.470948 20.062910 1.983694 0.000000 0.000000 0.000000 
0.000220 0.950526 0.003329 -1.425900 -1.000880 1.659171 2.427848 0.047485 1.172387 2.657951 -0.090876 -3.538255 -2.114635 0.076733 9.648374 0.000000 0.000000 0.000000 -1.558133 0.071033 -0.299394 -0.457290 -0.008523 -1.277356 -3.002921 -10.722398 11.775189 0.000000 0.000000 0.000000 1.164146 -0.029509 0.254839 -1.591853 0.769061 -1.192432 1.077886 0.039502 1.208584 -0.292995 0.766697 -8.127097 0.000000 0.000000 0.000000 -21.886031 -0.060736 -2.027559 -49.459896 -4.297303 -3.887826 -13.968971 -19.615807 3.133563 0.000000 0.000000 0.000000 20.432654 1.878893 -1.210702 53.470936 3.303348 -3.359030 9.151601 20.420865 2.078764 0.000000 0.000000 0.000000 
0.000100 0.950433 0.004126 -1.422579 -0.762046 1.420744 2.297796 0.062487 1.334584 2.935709 -0.124033 -3.339264 -2.200016 -0.095874 9.523686 0.000000 0.000000 0.000000 -1.557634 0.045672 -0.023087 -0.416624 -0.006518 -1.150730 -3.118397 -10.896422 11.710926 0.000000 0.000000 0.000000 1.041837 -0.030033 0.322717 -1.478094 0.718186 -1.264716 0.952311 -0.102514 1.185374 -0.604597 0.973280 -7.989569 0.000000 0.000000 0.000000 -21.765812 -0.162829 -1.962926 -49.391594 -4.280419 -3.888145 -14.364150 -18.951854 3.087274 0.000000 0.000000 0.000000 20.298904 1.478846 -1.414221 53.784672 3.360475 -3.358902 9.573385 20.663261 2.175157 0.000000 0.000000 0.000000 
-0.000005 0.950430 0.004761 -1.430831 -0.639492 1.504209 2.353261 0.065016 1.408113 2.885537 -0.104116 -3.593754 -2.275641 -0.193189 9.578064 0.000000 0.000000 0.000000 -1.554807 0.050753 -0.083237 -0.373947 -0.008461 -1.104785 -3.180104 -10.999607 11.715570 0.000000 0.000000 0.000000 0.795263 -0.022385 0.240974 -1.373697 0.672314 -1.483159 1.179963 -0.448558 1.225242 -0.772964 1.058279 -7.786000 0.000000 0.000000 0.000000 -22.015932 0.400923 -2.212143 -49.418201 -4.219558 -3.941914 -14.079165 -18.624169 2.997788 0.000000 0.000000 0.000000 20.039614 1.809342 -1.295808 54.036658 3.404998 -3.344697 9.517350 20.765385 2.164997 0.000000 0.000000 0.000000 
-0.000039 0.950587 0.005136 -1.408963 -0.549581 1.452269 2.344852 0.065695 1.417008 2.875424 -0.108910 -3.493926 -2.323986 -0.260861 9.594458 0.000000 0.000000 0.000000 -1.535352 0.036245 0.073148 -0.434638 -0.007581 -1.219304 -3.207052 -11.053581 11.783293 0.000000 0.000000 0.000000 0.652176 -0.022861 0.301711 -1.382435 0.677753 -1.568382 1.109456 -0.642499 1.244954 -0.572211 0.936523 -8.205138 0.000000 0.000000 0.000000 -21.796492 0.686403 -2.314857 -49.471275 -4.035016 -4.028763 -14.268686 -18.715340 3.049721 0.000000 0.000000 0.000000 19.905334 1.788331 -1.327019 54.308771 3.317338 -3.400677 9.459323 21.199446 2.200591 0.000000 0.000000 0.000000 
0.000019 0.950829 0.005386 -1.371212 -0.588983 1.504005 2.303153 0.065321 1.397009 2.860227 -0.106128 -3.522618 -2.325929 -0.229122 9.689886 0.000000 0.000000 0.000000 -1.523149 0.040040 0.029102 -0.679180 0.024243 -1.023355 -2.961361 -10.532877 11.467898 0.000000 0.000000 0.000000 0.511511 -0.021865 0.327107 -1.346988 0.661670 -1.614438 1.051125 -0.487934 1.079106 -0.352645 0.763922 -7.692899 0.000000 0.000000 0.000000 -21.557151 0.828198 -2.415928 -49.451355 -3.880024 -4.060829 -14.479109 -18.909634 3.111344 0.000000 0.000000 0.000000 19.730940 1.625938 -1.363445 54.581118 3.346173 -3.397464 9.616250 21.300877 2.242997 0.000000 0.000000 0.000000 
0.000132 0.950921 0.005619 -1.401820 -0.529796 1.556619 2.345813 0.062813 1.387301 2.840293 -0.099748 -3.598399 -2.361914 -0.271198 9.724396 0.000000 0.000000 0.000000 -1.534059 0.040076 0.032626 -0.760371 0.037554 -0.905298 -2.735321 -10.038786 11.193025 0.000000 0.000000 0.000000 0.475411 -0.017795 0.248283 -1.337515 0.659424 -1.785541 1.095972 -0.528370 1.252560 -0.312286 0.727156 -7.572307 0.000000 0.000000 0.000000 -21.271348 1.233655 -2.600968 -49.620730 -4.114664 -3.995240 -14.679450 -18.923856 3.150291 0.000000 0.000000 0.000000 19.654103 1.627258 -1.353511 54.316913 3.509008 -3.323771 9.660500 21.412681 2.264916 0.000000 0.000000 0.000000 
0.000271 0.950911 0.005906 -1.438044 -0.622454 1.700259 2.235879 0.070060 1.451280 3.073691 -0.097950 -3.929880 -2.325475 -0.186814 9.800506 0.000000 0.000000 0.000000 -1.573865 0.053296 -0.098040 -0.883965 0.057003 -0.742545 -2.357878 -9.250872 10.860357 0.000000 0.000000 0.000000 0.510289 -0.009176 0.041351 -1.425390 0.699613 -1.847848 1.125806 -0.301857 1.271224 -0.405222 0.776654 -7.178519 0.000000 0.000000 0.000000 -20.881498 1.316900 -2.647388 -49.777279 -4.224138 -3.950666 -14.897937 -18.998446 3.194152 0.000000 0.000000 0.000000 19.411049 1.572537 -1.312851 54.264062 3.488919 -3.337460 9.966932 21.586529 2.345449 0.000000 0.000000 0.000000 
0.000442 0.950769 0.006248 -1.392043 -0.745455 1.685939 2.316904 0.081628 1.632684 2.801932 -0.065272 -4.147453 -2.292318 -0.132071 9.826501 0.000000 0.000000 0.000000 -1.681891 0.054176 -0.069064 -1.012111 0.075206 -0.620472 -2.054770 -8.605065 10.563844 0.000000 0.000000 0.000000 0.505732 -0.013499 0.138296 -1.485117 0.727357 -1.960815 1.203155 -0.207393 1.265432 -0.438671 0.789591 -6.999348 0.000000 0.000000 0.000000 -21.019457 1.540420 -2.790731 -49.444906 -4.213465 -3.927531 -15.098643 -19.125030 3.250069 0.000000 0.000000 0.000000 19.403781 1.334948 -1.438094 54.017530 3.586143 -3.277550 10.379951 21.810983 2.444612 0.000000 0.000000 0.000000 
0.000661 0.950538 0.006598 -1.430172 -1.045768 1.748496 2.438644 0.079231 1.629815 2.584095 -0.051419 -4.128590 -2.131636 0.077419 9.736815 0.000000 0.000000 0.000000 -1.721611 0.069671 -0.225201 -0.987784 0.085069 -0.355433 -1.866165 -8.171155 10.186368 0.000000 0.000000 0.000000 0.602679 -0.015384 0.143382 -1.542884 0.749937 -1.740240 1.385555 -0.201724 0.903560 -0.432219 0.761202 -6.759146 0.000000 0.000000 0.000000 -21.140958 1.828774 -2.926687 -49.225522 -4.049409 -3.953511 -15.362297 -19.185350 3.310325 0.000000 0.000000 0.000000 19.233427 1.148852 -1.581454 53.823794 3.433441 -3.288334 10.763627 22.089645 2.533673 0.000000 0.000000 0.000000 
0.000933 0.950475 0.006934 -1.421164 -1.268254 1.765869 2.379559 0.091446 1.759144 2.601757 -0.044475 -4.287627 -2.033945 0.232977 9.760325 0.000000 0.000000 0.000000 -1.786238 0.088360 -0.417263 -0.920199 0.089357 -0.115207 -1.848551 -8.156545 10.171883 0.000000 0.000000 0.000000 0.634680 -0.019066 0.210466 -1.459508 0.708892 -1.543358 1.459628 -0.089081 0.522969 -0.341463 0.677141 -6.430399 0.000000 0.000000 0.000000 -21.333631 1.827411 -2.957938 -48.886149 -3.801346 -3.989166 -15.726084 -19.321618 3.393426 0.000000 0.000000 0.000000 19.171156 0.888259 -1.730532 53.619980 3.410523 -3.246230 11.272389 22.576915 2.682972 0.000000 0.000000 0.000000 
0.001271 0.950411 0.007204 -1.470560 -1.495796 1.726965 2.437135 0.095238 1.813201 2.517614 -0.043916 -4.205168 -1.912212 0.393670 9.691462 0.000000 0.000000 0.000000 -1.766561 0.100925 -0.567566 -0.909909 0.109381 0.330479 -1.785964 -7.962711 9.832140 0.000000 0.000000 0.000000 0.617800 -0.026176 0.369903 -1.332066 0.649260 -1.546291 1.597205 -0.022805 0.388602 -0.164948 0.527195 -6.081682 0.000000 0.000000 0.000000 -21.515136 2.011572 -3.065592 -48.715307 -3.609712 -4.043273 -15.859589 -19.262552 3.407583 0.000000 0.000000 0.000000 18.977948 0.671171 -1.849195 53.585096 3.195308 -3.323170 11.752703 23.007380 2.822543 0.000000 0.000000 0.000000 
0.001649 0.950284 0.007399 -1.481888 -1.521573 1.747213 2.421923 0.089258 1.723210 2.516517 -0.052527 -4.053366 -1.873357 0.419678 9.592851 0.000000 0.000000 0.000000 -1.815701 0.115103 -0.720243 -0.844667 0.112135 0.533891 -1.804841 -8.006689 9.846579 0.000000 0.000000 0.000000 0.675203 -0.031702 0.464145 -1.302251 0.633789 -1.365251 1.681515 -0.069669 0.134414 -0.060333 0.444656 -5.993461 0.000000 0.000000 0.000000 -21.688041 2.105783 -3.126555 -48.477586 -3.358953 -4.103754 -16.145034 -19.558237 3.513189 0.000000 0.000000 0.000000 18.968918 0.485714 -1.974264 53.422849 2.970410 -3.382651 11.901215 23.311070 2.884533 0.000000 0.000000 0.000000 
0.002034 0.950154 0.007556 -1.486237 -1.701029 1.652509 2.291484 0.097120 1.758794 2.679508 -0.076930 -3.859361 -1.754108 0.563580 9.475581 0.000000 0.000000 0.000000 -1.900012 0.124111 -0.803551 -0.808041 0.117713 0.737415 -1.700997 -7.851284 9.943978 0.000000 0.000000 0.000000 0.727038 -0.035520 0.529019 -1.290957 0.627610 -1.286914 1.765451 0.001078 0.249276 0.142229 0.293395 -5.914209 0.000000 0.000000 0.000000 -21.862084 1.998478 -3.071493 -48.158949 -3.212644 -4.147112 -16.366096 -19.713386 3.584179 0.000000 0.000000 0.000000 18.959961 0.588113 -1.926932 53.160409 2.665044 -3.504192 12.330614 23.651131 3.011576 0.000000 0.000000 0.000000 
0.002401 0.949858 0.007737 -1.495127 -1.733018 1.524308 2.196163 0.100292 1.753001 2.817402 -0.105325 -3.565419 -1.688003 0.598175 9.273234 0.000000 0.000000 0.000000 -1.907425 0.119928 -0.756934 -0.852175 0.126246 0.814780 -1.690784 -7.860594 10.032055 0.000000 0.000000 0.000000 0.762080 -0.043437 0.687072 -1.263685 0.612956 -1.055846 1.822314 0.129947 0.149223 0.191323 0.265940 -5.950401 0.000000 0.000000 0.000000 -22.000980 1.908151 -3.068122 -47.918581 -3.147641 -4.139073 -16.677155 -19.960729 3.680999 0.000000 0.000000 0.000000 19.176071 0.543603 -1.953084 52.746211 2.555211 -3.516847 12.311259 23.601448 3.006261 0.000000 0.000000 0.000000 
0.002731 0.949670 0.007951 -1.453510 -1.964358 1.402096 2.119491 0.100124 1.695149 2.791090 -0.129969 -3.133282 -1.536076 0.775176 9.100012 0.000000 0.000000 0.000000 -2.001457 0.121908 -0.751807 -0.801270 0.126835 0.949421 -1.672131 -7.842930 10.008360 0.000000 0.000000 0.000000 0.872520 -0.048671 0.757276 -1.321883 0.639688 -1.041297 1.931266 0.227658 0.484892 0.400706 0.118732 -6.026343 0.000000 0.000000 0.000000 -22.336315 1.721864 -2.976536 -47.533122 -2.955842 -4.214714 -16.931622 -20.407074 3.819314 0.000000 0.000000 0.000000 19.360304 0.709435 -1.889424 52.240715 2.487830 -3.534594 12.551448 23.757692 3.075589 0.000000 0.000000 0.000000 
